inDegrees=no
num_controls=7
num_derivatives=13
num_iterations=51
num_multipliers=7
num_parameters=0
num_slacks=7
num_states=26
objective=0.433692
objective_accelerations=0.069358
objective_balance=0.003288
objective_effort=0.027576
objective_height=0.328166
objective_ligament=0.005304
solver_duration=743.674314
status=Solve_Succeeded
success=true
DataType=double
version=3
OpenSimVersion=4.5
endheader
time	/jointset/ground_pelvis/pelvis_tilt/value	/jointset/ground_pelvis/pelvis_tx/value	/jointset/ground_pelvis/pelvis_ty/value	/jointset/hip_l/hip_flexion_l/value	/jointset/hip_l/hip_adduction_l/value	/jointset/hip_l/hip_rotation_l/value	/jointset/back/lumbar_extension/value	/jointset/patellofemoral_l/patellar_flexion_l/value	/jointset/knee_l/knee_flexion_l/value	/jointset/knee_l/knee_adduction_l/value	/jointset/knee_l/knee_rotation_l/value	/jointset/ankle_l/ankle_angle_l/value	/jointset/subtalar_l/subtalar_angle_l/value	/jointset/ground_pelvis/pelvis_tilt/speed	/jointset/ground_pelvis/pelvis_tx/speed	/jointset/ground_pelvis/pelvis_ty/speed	/jointset/hip_l/hip_flexion_l/speed	/jointset/hip_l/hip_adduction_l/speed	/jointset/hip_l/hip_rotation_l/speed	/jointset/back/lumbar_extension/speed	/jointset/patellofemoral_l/patellar_flexion_l/speed	/jointset/knee_l/knee_flexion_l/speed	/jointset/knee_l/knee_adduction_l/speed	/jointset/knee_l/knee_rotation_l/speed	/jointset/ankle_l/ankle_angle_l/speed	/jointset/subtalar_l/subtalar_angle_l/speed	/forceset/tau_hip_flexion_l	/forceset/tau_hip_adduction_l	/forceset/tau_hip_rotation_l	/forceset/tau_knee_flexion_l	/forceset/tau_ankle_angle_l	/forceset/tau_subtalar_angle_l	/forceset/tau_lumbar_extension	lambda_cid13_p0	lambda_cid13_p1	lambda_cid13_p2	lambda_cid13_p3	lambda_cid13_p4	lambda_cid13_p5	lambda_cid14_p0	/jointset/ground_pelvis/pelvis_tilt/accel	/jointset/ground_pelvis/pelvis_tx/accel	/jointset/ground_pelvis/pelvis_ty/accel	/jointset/hip_l/hip_flexion_l/accel	/jointset/hip_l/hip_adduction_l/accel	/jointset/hip_l/hip_rotation_l/accel	/jointset/back/lumbar_extension/accel	/jointset/patellofemoral_l/patellar_flexion_l/accel	/jointset/knee_l/knee_flexion_l/accel	/jointset/knee_l/knee_adduction_l/accel	/jointset/knee_l/knee_rotation_l/accel	/jointset/ankle_l/ankle_angle_l/accel	/jointset/subtalar_l/subtalar_angle_l/accel	gamma_cid13_p0	gamma_cid13_p1	gamma_cid13_p2	gamma_cid13_p3	gamma_cid13_p4	gamma_cid13_p5	gamma_cid14_p0
1	-0.5801380982735107	-0.08241238033316875	0.4687733765730142	2.153903156770283	-0.4568569758518956	0.1157234661325022	-0.2617767407496117	1.671729197086222	1.671729197086228	-0.02065422777668694	-0.174525338959415	0.2580515869372198	0.02535292096357937	-0.0170166811865324	0.009724741880896998	0.003865414242956642	-0.006017522655805655	-0.002869728899210842	-0.001447401444260251	0.0001339973528291686	-6.593763361077782e-05	-6.593763361075444e-05	-0.0004760863332563475	-0.0001389164158390466	0.02314020840554945	0.01090958323670219	-0.3621016728219822	-0.02995079420035326	0.004537012114616555	-0.3475557025230011	0.03660045624829546	0.02336579404548066	0.3042730743704733	-29.97621589831522	-4.589809350443692	0.04248684463528057	8.610320028551687	-670.9650216310663	-53.12547341457045	-0.02840259706128875	1.078550411337724	0.07004021357885938	2.617989134763658	-8.301171927421318	-0.4487479192312296	-2.825390514316114	-0.01910851043410085	-6.33779575662581	-6.337795756625806	-0.9994944262757574	-0.04814330091866059	0.04745982711450173	-0.527399473064239	5.144650717770083e-09	2.451597144180769e-08	-1.885053688412537e-08	2.281605001842475e-09	-2.144389326672943e-09	3.74702257838729e-08	1.637868782838572e-09
1.01	-0.5802553812894754	-0.08231169707814848	0.4689427952094401	2.153429124408493	-0.4569067928758055	0.1155674599127471	-0.2617752373213251	1.671411642564082	1.671411642564084	-0.02070711324175023	-0.1745268534739686	0.2582854536315435	0.02543747998944571	-0.006436117751171092	0.01041621298701997	0.03001354374349251	-0.08877467632988363	-0.007085782782332667	-0.02974969017844289	0.0001669506892711499	-0.06344441163482353	-0.0634444116348236	-0.01009873370069677	-0.0001626242441292858	0.02361562265886982	0.00600107688117728	-0.3620133177383562	-0.02979274034474989	0.00452994405194001	-0.3474576861663898	0.03646575364932673	0.02337835651880577	0.3042117138819463	-30.00736079483543	-4.592503634215672	0.045990600527121	8.539161999217391	-670.839244904632	-53.12674712046233	-0.02841501647835159	1.048377346898971	0.06934429702817815	2.612506189130672	-8.260848946758118	-0.4068448020566803	-2.832032865052075	0.01453661317529811	-6.337786837582928	-6.337786837582986	-0.9433162172250626	0.02072311115683263	0.04495552351328362	-0.4727495311641242	-2.9275017593651e-09	1.353088868969997e-08	-4.148134943881965e-09	-9.093200478497258e-09	-1.622676033270217e-08	1.314842902694286e-07	-1.538020366298476e-08
1.02	-0.5802667450636353	-0.08220397036448755	0.4693735514071541	2.152127948138086	-0.4569985325743877	0.1151285538432546	-0.2617733964881786	1.670460320578787	1.670460320578784	-0.02085615844552244	-0.1745285635398321	0.2585235491282152	0.02547291928888317	0.004167167174746729	0.0111334336090304	0.05613292650130383	-0.1714463043782535	-0.01125426383362758	-0.05802737139593502	0.0002014783254018227	-0.1268194302645939	-0.1268194302645941	-0.01970803407801239	-0.0001780266747787581	0.02398596887509392	0.001085637950951711	-0.3619249626547502	-0.02963468648911532	0.00452287598927342	-0.3473596698097745	0.0363310510503712	0.02339091899218108	0.3041503533933999	-30.03981888352336	-4.59428918658833	0.04857471641004528	8.471593069528844	-670.7400645137812	-53.08864268899413	-0.02842242393645329	1.083094709449013	0.07519011675632854	2.612239786218745	-8.284066802279664	-0.4392333528657812	-2.820469010977982	-0.01879365049646022	-6.337104682337348	-6.337104682337348	-0.99682502825076	-0.04648222139039829	0.02644621969521161	-0.5287859880043073	-1.055374221778824e-08	3.566580342988312e-09	1.331248264899062e-08	-1.94172587912018e-08	-2.973130257990248e-08	2.244680545938092e-07	-3.19770976943892e-08
1.03	-0.5801718166405921	-0.08208887599085092	0.4700652584172679	2.15000070870925	-0.4571315479480553	0.1144071468247995	-0.2617712316733803	1.668875374582923	1.668875374582918	-0.02110115225719789	-0.1745302968413999	0.258764588179059	0.02545924979823209	0.01483532134195315	0.01189622760613543	0.08219384513899183	-0.2539639950292983	-0.01532282681928569	-0.08623130357864618	0.000230307376779554	-0.1901588670812075	-0.1901588670812072	-0.02928309104150763	-0.0001563078331343644	0.02418120763997127	-0.003811261215331675	-0.3615890112149271	-0.02929225947449363	0.004504787292789943	-0.3471409935934979	0.03625050424976535	0.02346314364880314	0.3039297767162616	-30.03480905623145	-4.635577183807864	0.06548687505349873	8.334293855785655	-670.3667852808555	-53.09303964891167	-0.02845241618964725	1.061189701158286	0.07843600569478627	2.600814617416535	-8.229989578071919	-0.3867659120813904	-2.816971387237249	0.01354459406380438	-6.3307180927879	-6.330718092787867	-0.9367244978380971	0.02836414036338983	0.009964511312669634	-0.468902942138208	-1.817543255357146e-08	-6.387311938362152e-09	3.08012452995431e-08	-2.973059519403251e-08	-4.322994861527799e-08	3.174413056512389e-07	-4.8569693986871e-08
